<?xml version="1.0" encoding="utf-8"?>
<!-- Generator: Adobe Illustrator 16.0.0, SVG Export Plug-In . SVG Version: 6.00 Build 0)  -->
<!DOCTYPE svg PUBLIC "-//W3C//DTD SVG 1.1//EN" "http://www.w3.org/Graphics/SVG/1.1/DTD/svg11.dtd">
<svg version="1.1" id="Layer_1" xmlns="http://www.w3.org/2000/svg" xmlns:xlink="http://www.w3.org/1999/xlink" x="0px" y="0px" viewBox="59.254 98.716 412.507 90.784"
	 enable-background="new 59.254 98.716 412.507 90.784" xml:space="preserve">
<g>
	<g>
		<g>
			<path fill="#4182C3" d="M129.647,171.776H64.468c-1.44,0-2.607-1.167-2.607-2.607v-39.107h70.394v39.107
				C132.255,170.609,131.087,171.776,129.647,171.776z"/>
		</g>
	</g>
	<g>
		<g>
			<path fill="#64AFE1" d="M124.433,171.776H64.468c-1.44,0-2.607-1.167-2.607-2.607v-39.107h65.179v39.107
				C127.041,170.609,125.873,171.776,124.433,171.776z"/>
		</g>
	</g>
	<g>
		<g>
			<path fill="#463C4B" d="M129.647,119.633H61.861v10.429h70.394v-7.821C132.255,120.8,131.087,119.633,129.647,119.633z"/>
		</g>
	</g>
	<g>
		<g>
			<path fill="#555A6E" d="M124.433,119.633H61.861v10.429h65.179v-7.821C127.041,120.8,125.873,119.633,124.433,119.633z"/>
		</g>
	</g>
	<g>
		<g>
			<path fill="#D7E6F0" d="M61.861,130.062l10.428-10.429h10.429L72.29,130.062H61.861z"/>
		</g>
	</g>
	<g>
		<g>
			<path fill="#D7E6F0" d="M82.718,130.062l10.429-10.429h10.429l-10.429,10.429H82.718z"/>
		</g>
	</g>
	<g>
		<g>
			<path fill="#D7E6F0" d="M103.576,130.062l10.429-10.429h10.429l-10.429,10.429H103.576z"/>
		</g>
	</g>
	<g>
		<g>
			<path fill="#463C4B" d="M127.188,98.748l-64.38,10.177c-1.422,0.225-2.393,1.56-2.168,2.982l1.222,7.726l69.53-10.991
				l-1.222-7.726C129.945,99.494,128.61,98.523,127.188,98.748z"/>
		</g>
	</g>
	<g>
		<g>
			<path fill="#555A6E" d="M122.038,99.563l-59.229,9.363c-1.422,0.225-2.393,1.56-2.168,2.982l1.222,7.726l64.379-10.177
				l-1.221-7.726C124.795,100.308,123.46,99.337,122.038,99.563z"/>
		</g>
	</g>
	<g>
		<g>
			<path fill="#D7E6F0" d="M61.861,119.633l8.672-11.929l10.3-1.628l-8.672,11.929L61.861,119.633z"/>
		</g>
	</g>
	<g>
		<g>
			<path fill="#D7E6F0" d="M82.463,116.376l8.672-11.929l10.3-1.628l-8.672,11.929L82.463,116.376z"/>
		</g>
	</g>
	<g>
		<g>
			<path fill="#D7E6F0" d="M103.064,113.12l8.673-11.929l10.301-1.628l-8.673,11.929L103.064,113.12z"/>
		</g>
	</g>
	<g>
		<g>
			<path fill="#F04B37" d="M67.51,111.812h-5.649c-1.44,0-2.607,1.167-2.607,2.607v13.036c0,1.44,1.167,2.607,2.607,2.607h18.685
				v-5.214C80.546,117.647,74.709,111.812,67.51,111.812z"/>
		</g>
	</g>
	<g>
		<g>
			<circle fill="#D7E6F0" cx="64.468" cy="117.026" r="2.607"/>
		</g>
	</g>
	<g>
		<g>
			<circle fill="#D7E6F0" cx="74.897" cy="124.847" r="2.607"/>
		</g>
	</g>
	<g>
		<path fill="#D7E6F0" d="M120.522,148.312h-14.339v-7.822h14.339c0.72,0,1.303-0.583,1.303-1.303c0-0.72-0.583-1.304-1.303-1.304
			H68.379c-0.72,0-1.304,0.583-1.304,1.304c0,0.72,0.584,1.303,1.304,1.303h14.339v7.822H68.379c-0.72,0-1.304,0.583-1.304,1.303
			c0,0.72,0.584,1.304,1.304,1.304h52.144c0.72,0,1.303-0.583,1.303-1.304C121.826,148.896,121.242,148.312,120.522,148.312z
			 M85.326,140.49h18.25v7.822h-18.25V140.49z"/>
		<path fill="#D7E6F0" d="M120.522,161.348H68.379c-0.72,0-1.304,0.583-1.304,1.304c0,0.72,0.584,1.304,1.304,1.304h52.144
			c0.72,0,1.303-0.584,1.303-1.304C121.826,161.931,121.242,161.348,120.522,161.348z"/>
	</g>
</g>
<g>
	<path fill="#64AFE1" d="M175.343,119.876v5.209h-18.821v17.3h15.969v5.209h-15.969v24.182h-15.057v-51.9H175.343z"/>
	<path fill="#64AFE1" d="M195.494,119.876v51.9h-15.057v-51.9H195.494z"/>
	<path fill="#64AFE1" d="M219.562,119.876v46.691h21.33v5.209h-36.387v-51.9H219.562z"/>
	<path fill="#64AFE1" d="M292.298,119.876v51.9h-14.524v-36.121l-10.113,36.121h-8.403l-10.38-35.512v35.512h-5.057v-51.9h15.285
		l8.897,31.33l8.859-31.33H292.298z"/>
	<path fill="#64AFE1" d="M301.232,171.776v-51.9h23.079c11.889,0,17.833,4.246,17.833,12.737c0,6.033-3.588,9.899-10.761,11.597
		c8.644,1.724,12.966,6.312,12.966,13.764c0,9.201-5.817,13.802-17.452,13.802H301.232z M316.289,142.461h4.639
		c4.284,0,6.426-3.168,6.426-9.505c0-5.855-2.269-8.783-6.806-8.783h-4.259V142.461z M316.289,167.48h4.297
		c5.627,0,8.44-3.219,8.44-9.658c0-7.376-2.902-11.064-8.707-11.064h-4.03V167.48z"/>
	<path fill="#64AFE1" d="M373.741,119.876l14.448,51.9h-15.133l-3.08-11.254H354.35l-3.308,11.254h-5.894l15.36-51.9H373.741z
		 M355.832,155.313h12.737l-6.121-23.003L355.832,155.313z"/>
	<path fill="#64AFE1" d="M426.173,134.401l-6.996,1.293c0.304-1.394,0.456-2.56,0.456-3.498c0-6.033-3.663-9.049-10.988-9.049
		c-5.779,0-8.669,2.079-8.669,6.235c0,3.118,3.231,5.792,9.695,8.023c12.472,4.284,18.707,10.621,18.707,19.011
		c0,4.918-1.749,8.866-5.247,11.844c-3.498,2.979-8.149,4.468-13.954,4.468c-12.852,0-19.277-4.981-19.277-14.943
		c0-0.811,0.063-1.812,0.19-3.003l7.262-1.597c-0.558,2.206-0.836,4.12-0.836,5.741c0,6.439,3.688,9.658,11.064,9.658
		c5.905,0,8.858-2.319,8.858-6.958c0-3.447-3.535-6.476-10.607-9.087c-10.216-3.751-15.323-9.746-15.323-17.984
		c0-4.664,1.705-8.422,5.114-11.274c3.409-2.852,7.89-4.277,13.44-4.277C420.47,119.002,426.173,124.135,426.173,134.401z"/>
	<path fill="#64AFE1" d="M468.604,119.876v5.209h-18.593v15.703h15.627v5.209h-15.627v20.57h21.749v5.209h-36.806v-51.9H468.604z"/>
</g>
</svg>
